# AST/ASF file generated using VICON BodyLanguage
# -----------------------------------------------
:version 1.10
:name VICON
:units
  mass 1.0
  length 0.45
  angle deg
:documentation
   .ast/.asf automatically generated from VICON data using
   VICON BodyBuilder and BodyLanguage model FoxedUp or BRILLIANT.MOD
:root
   order TX TY TZ RX RY RZ
   axis XYZ
   position 0 0 0  
   orientation 0 0 0 
:bonedata
  begin
     id 1 
     name lhipjoint
     direction 0.630082 -0.636569 0.44472 
     length 2.82754 
     axis 0 0 0  XYZ
  end
  begin
     id 2 
     name lfemur
     direction 0.34202 -0.939693 0  
     length 7.26371  
     axis 0 0 20  XYZ
    dof rx ry rz
    limits (-160.0 20.0)
           (-70.0 70.0)
           (-60.0 70.0)
  end
  begin
     id 3 
     name ltibia
     direction 0.34202 -0.939693 0   
     length 7.88616   
     axis 0 0 20   XYZ
    dof rx
    limits (-10.0 170.0)
  end
  begin
     id 4 
     name lfoot
     direction 0.0603448 -0.165796 0.984312   
     length 1.77861   
     axis -90 7.62852e-016 20   XYZ
    dof rx rz
    limits (-45.0 90.0)
           (-70.0 20.0)
  end
  begin
     id 5 
     name ltoes
     direction 1.53577e-011 -4.21876e-011 1   
     length 0.902235   
     axis -90 7.62852e-016 20   XYZ
    dof rx
    limits (-90.0 20.0)
  end
  begin
     id 6 
     name rhipjoint
     direction -0.656778 -0.61817 0.431866   
     length 2.9117  
     axis 0 0 0  XYZ 
  end
  begin
     id 7 
     name rfemur
     direction -0.34202 -0.939693 0   
     length 6.81603   
     axis 0 0 -20   XYZ
    dof rx ry rz
    limits (-160.0 20.0)
           (-70.0 70.0)
           (-70.0 60.0)
  end
  begin
     id 8 
     name rtibia
     direction -0.34202 -0.939693 0   
     length 8.05997   
     axis 0 0 -20   XYZ
    dof rx
    limits (-10.0 170.0)
 end
 begin
     id 9 
     name rfoot
     direction -0.0862404 -0.236944 0.967688   
     length 1.84899  
     axis -90 -7.62852e-016 -20   XYZ
    dof rx rz
    limits (-45.0 90.0)
           (-20.0 70.0)
  end
  begin
     id 10 
     name rtoes
     direction -1.53561e-011 -4.21798e-011 1   
     length 0.931579   
     axis -90 -7.62852e-016 -20   XYZ
    dof rx
    limits (-90.0 20.0)
  end
  begin
     id 11 
     name lowerback
     direction -0.0110203 0.991769 -0.127564   
     length 2.05686   
     axis 0 0 0   XYZ
    dof rx ry rz
    limits (-20.0 45.0)
           (-30.0 30.0)
           (-30.0 30.0)
  end
  begin
     id 12 
     name upperback
     direction 0.0109719 0.99993 -0.00432479   
     length 2.06234   
     axis 0 0 0   XYZ
    dof rx ry rz
    limits (-20.0 45.0)
           (-30.0 30.0)
           (-30.0 30.0)
  end
  begin
     id 13 
     name thorax
     direction 0.0173308 0.998351 0.0547306   
     length 2.09856   
     axis 0 0 0   XYZ
    dof rx ry rz
    limits (-20.0 45.0)
           (-30.0 30.0)
           (-30.0 30.0)
  end
  begin
     id 14 
     name lowerneck
     direction -0.0311736 0.989033 0.144366   
     length 1.98151   
     axis 0 0 0   XYZ
    dof rx ry rz
    limits (-20.0 45.0)
           (-30.0 30.0)
           (-30.0 30.0)
  end
  begin
     id 15 
     name upperneck
     direction 0.0421057 0.975772 -0.214698   
     length 2.01457   
     axis 0 0 0   XYZ
    dof rx ry rz
    limits (-20.0 45.0)
           (-30.0 30.0)
           (-30.0 30.0)
  end
  begin
     id 16
     name head
     direction 0.0136911 0.995958 -0.0887718  
     length 2.03562  
     axis 0 0 0   XYZ
    dof rx ry rz
    limits (-20.0 45.0)
           (-30.0 30.0)
           (-30.0 30.0)
  end
  begin
     id 17 
     name lclavicle
     direction 0.915335 0.396201 0.0720134  
     length 4.16217  
     axis 0 0 0   XYZ
    dof ry rz
    limits (-20.0 10.0)
           (0.0 20.0)
  end
  begin
     id 18 
     name lhumerus
     direction 1 -4.48965e-011 6.383e-018   
     length 4.93042   
     axis -180 -30 -90   XYZ
    dof rx ry rz
    limits (-60.0 90.0)
           (-90.0 90.0)
           (-90.0 90.0)
  end
  begin
     id 19
     name lradius
     direction 1 -4.48972e-011 8.8689e-027   
     length 3.68177   
     axis -180 -30 -90   XYZ
    dof rx
    limits (-10.0 170.0)
  end
  begin
     id 20
     name lwrist
     direction 1 -4.48953e-011 1.17971e-026   
     length 1.84089   
     axis -7.69454e-015 90 90   XYZ
    dof ry
    limits (-180.0 0.0)
 end
  begin
     id 21 
     name lhand
     direction 1 -4.49027e-011 2.35802e-026   
     length 0.721479   
     axis -1.50533e-014 90 90   XYZ
    dof rx rz
    limits (-90.0 90.0)
           (-45.0 45.0)
  end
  begin
     id 22 
     name lfingers
     direction 1 -4.48915e-011 4.72027e-026   
     length 0.581675   
     axis -3.01059e-014 90 90   XYZ
    dof rx
    limits (0.0 90.0)
  end
  begin
     id 23
     name lthumb
     direction 0.707107 -6.34948e-011 0.707107   
     length 0.835172   
     axis -90 45 -5.12164e-014   XYZ
    dof rx rz
    limits (-45.0 45.0)
           (-45.0 45.0)
  end
  begin
     id 24 
     name rclavicle
     direction -0.882781 0.469197 0.0234974   
     length 3.95647  
     axis 0 0 0   XYZ 
    dof ry rz
    limits (-10.0 20.0)
           (-20.0 0.0)
  end
  begin
     id 25 
     name rhumerus
     direction -1 -4.48965e-011 -1.54906e-018  
     length 5.07905   
     axis -180 30 90   XYZ
    dof rx ry rz
    limits (-90.0 60.0)
           (-90.0 90.0)
           (-90.0 90.0)
  end
  begin
     id 26 
     name rradius
     direction -1 -4.48972e-011 5.47489e-027   
     length 3.54394   
     axis -180 30 90   XYZ
    dof rx
    limits (-10.0 170.0)
  end
  begin
     id 27 
     name rwrist
     direction -1 -4.48955e-011 1.17969e-026   
     length 1.77197   
     axis -7.69454e-015 -90 -90   XYZ
    dof ry
    limits (-180.0 0.0)
  end
  begin
     id 28
     name rhand
     direction -1 -4.48982e-011 2.35888e-026   
     length 0.681156   
     axis -1.50533e-014 -90 -90   XYZ
    dof rx rz
    limits (-90.0 90.0)
           (-45.0 45.0)
  end
  begin
     id 29
     name rfingers
     direction -1 -4.48955e-011 4.71877e-026   
     length 0.549165   
     axis -3.01059e-014 -90 -90   XYZ
    dof rx
    limits (0.0 90.0)
  end
  begin
     id 30
     name rthumb
     direction -0.707107 -6.3491e-011 0.707107   
     length 0.788495   
     axis -90 -45 5.12164e-014   XYZ
    dof rx rz
    limits (-45.0 45.0)
           (-45.0 45.0)
  end
:hierarchy
  begin
    root lhipjoint rhipjoint lowerback
    lhipjoint lfemur
    lfemur ltibia
    ltibia lfoot
    lfoot ltoes
    rhipjoint rfemur
    rfemur rtibia
    rtibia rfoot
    rfoot rtoes
    lowerback upperback
    upperback thorax
    thorax lowerneck lclavicle rclavicle
    lowerneck upperneck
    upperneck head
    lclavicle lhumerus
    lhumerus lradius
    lradius lwrist
    lwrist lhand lthumb
    lhand lfingers
    rclavicle rhumerus
    rhumerus rradius
    rradius rwrist
    rwrist rhand rthumb
    rhand rfingers
  end

#!OML:ASF H:\Bending\Project 1\Capture day 1\Session 1\Subject.ASF
:FULLY-SPECIFIED
:DEGREES
240
root -9.39407 17.9221 -16.2831 194.879 90.9874 190.641
lowerback 5.43963 1.47863 0.282336
upperback -3.39879 2.13756 1.67529
thorax -6.65352 1.09603 1.35117
lowerneck -27.168 -3.99353 -5.39734
upperneck 32.8957 -4.11027 2.9974
head 16.6375 -1.74709 1.39664
rclavicle 6.10642e-015 3.97569e-015
rhumerus -8.71606 14.5437 -84.3187
rradius 80.44
rwrist -2.01913
rhand -21.4833 -28.5657
rfingers 7.12502
rthumb 4.90765 -58.4889
lclavicle 6.10642e-015 3.97569e-015
lhumerus -5.30234 -21.8532 94.0211
lradius 77.7436
lwrist 42.7344
lhand -37.7968 19.0197
lfingers 7.12502
lthumb -10.8433 48.7197
rfemur 5.95501 6.74571 12.8924
rtibia -2.70347e-014
rfoot -7.09251 -16.9589
rtoes -24.8152
lfemur -7.65166 -10.664 -14.0535
ltibia 22.8009
lfoot -24.3401 20.3599
ltoes -37.7547
241
root -9.39303 17.9253 -16.2819 189.786 91.1196 185.45
lowerback 5.4564 1.55627 0.399722
upperback -3.39206 2.24602 1.60091
thorax -6.65083 1.14184 1.19517
lowerneck -27.3096 -4.02458 -5.30998
upperneck 32.9538 -4.13335 2.84703
head 16.6932 -1.7677 1.30898
rclavicle 9.26834e-015 -2.38542e-015
rhumerus -7.75421 14.2498 -84.3227
rradius 79.4159
rwrist -1.91901
rhand -21.2308 -28.7966
rfingers 7.12502
rthumb 5.15147 -58.714
lclavicle 9.26834e-015 -2.38542e-015
lhumerus -4.05365 -21.7081 93.7009
lradius 76.3837
lwrist 42.6185
lhand -37.4282 19.1733
lfingers 7.12502
lthumb -10.4877 48.8917
rfemur 5.79591 6.8814 12.9697
rtibia -1.11319e-014
rfoot -7.00091 -16.9856
rtoes -25.0359
lfemur -7.71371 -10.6878 -13.9621
ltibia 22.8064
lfoot -24.5156 20.398
ltoes -37.2743
242
root -9.39117 17.9279 -16.2814 186.111 91.2 181.68
lowerback 5.45282 1.58572 0.516033
upperback -3.37833 2.28989 1.53449
thorax -6.6275 1.15615 1.05605
lowerneck -27.4455 -4.02195 -5.18456
upperneck 33.0245 -4.11406 2.67099
head 16.7495 -1.76993 1.21291
rclavicle -1.99002e-014 -4.77083e-015
rhumerus -6.72134 14.0354 -84.3807
rradius 78.266
rwrist -1.84488
rhand -21.4025 -29.6853
rfingers 7.12502
rthumb 4.98575 -59.6067
lclavicle -1.99002e-014 -4.77083e-015
lhumerus -2.75059 -21.5174 93.3057
lradius 74.8826
lwrist 42.5131
lhand -37.0503 19.2784
lfingers 7.12502
lthumb -10.1232 49.0149
rfemur 5.66129 6.95894 13.0424
rtibia 7.95139e-015
rfoot -6.91552 -17.0178
rtoes -25.3078
lfemur -7.78956 -10.752 -13.8774
ltibia 22.8246
lfoot -24.6421 20.451
ltoes -36.9899
243
root -9.38892 17.9297 -16.282 183.573 91.2176 179.052
lowerback 5.43343 1.56092 0.59956
upperback -3.35664 2.25937 1.48969
thorax -6.5875 1.13597 0.96677
lowerneck -27.5256 -3.99996 -5.11088
upperneck 33.0494 -4.07433 2.57177
head 16.7729 -1.75959 1.16429
rclavicle -1.33962e-014 -2.3059e-014
rhumerus -5.65478 13.9148 -84.4682
rradius 77.0291
rwrist -1.80087
rhand -21.2224 -30.1677
rfingers 7.12502
rthumb 5.15966 -60.0849
lclavicle -1.33962e-014 -2.3059e-014
lhumerus -1.40316 -21.2518 92.871
lradius 73.2379
lwrist 42.4543
lhand -36.6721 19.2643
lfingers 7.12502
lthumb -9.75827 49.0182
rfemur 5.55691 6.96989 13.0981
rtibia -3.18055e-015
rfoot -6.84981 -17.0467
rtoes -25.581
lfemur -7.87961 -10.8356 -13.8095
ltibia 22.8485
lfoot -24.6871 20.5222
ltoes -37.0365
244
root -9.3869 17.931 -16.2832 181.723 91.1813 177.122
lowerback 5.41416 1.49545 0.631406
upperback -3.32689 2.17187 1.47496
thorax -6.54162 1.09088 0.944177
lowerneck -27.5428 -3.97114 -5.12462
upperneck 33.0113 -4.02877 2.58103
head 16.7558 -1.74262 1.18004
rclavicle -7.70718e-015 5.96354e-015
rhumerus -4.59728 13.8541 -84.5551
rradius 75.7421
rwrist -1.78738
rhand -21.2192 -30.2884
rfingers 7.12502
rthumb 5.16275 -60.2055
lclavicle -7.70718e-015 5.96354e-015
lhumerus -0.0305074 -20.9353 92.436
lradius 71.4765
lwrist 42.4582
lhand -36.3148 19.0897
lfingers 7.12502
lthumb -9.41355 48.8595
rfemur 5.48274 6.92603 13.1366
rtibia 1.74931e-014
rfoot -6.816 -17.062
rtoes -25.7754
lfemur -7.97994 -10.8957 -13.7552
ltibia 22.8747
lfoot -24.6389 20.592
ltoes -37.4304
245
root -9.38572 17.9319 -16.2842 180.044 91.1137 175.375
lowerback 5.4172 1.41464 0.608982
upperback -3.28918 2.06153 1.49127
thorax -6.50318 1.03769 0.986304
lowerneck -27.5364 -3.9376 -5.19336
upperneck 32.9349 -3.97421 2.64844
head 16.7171 -1.72078 1.23274
rclavicle -2.69928e-014 -5.1684e-015
rhumerus -3.57558 13.7854 -84.6187
rradius 74.4308
rwrist -1.79055
rhand -21.1892 -30.421
rfingers 7.12502
rthumb 5.19164 -60.3374
lclavicle -2.69928e-014 -5.1684e-015
lhumerus 1.34059 -20.6265 92.0291
lradius 69.6613
lwrist 42.5111
lhand -36.0082 18.7622
lfingers 7.12502
lthumb -9.11771 48.5451
rfemur 5.43341 6.8513 13.1668
rtibia 1.59028e-014
rfoot -6.82204 -17.0565
rtoes -25.8009
lfemur -8.08526 -10.8826 -13.7018
ltibia 22.9037
lfoot -24.5076 20.6227
ltoes -38.0607
